<?xml version="1.0" encoding="UTF-8"?>
<svg id="Camada_1" data-name="Camada 1" xmlns="http://www.w3.org/2000/svg" viewBox="0 0 708.66 386.71">
  <defs>
    <style>
      .cls-1 {
        fill: #002856;
      }

      .cls-1, .cls-2 {
        fill-rule: evenodd;
      }

      .cls-2 {
        fill: #ec6608;
      }
    </style>
  </defs>
  <g>
    <path class="cls-2" d="m171.22,249.5c0,10.83-3.83,20.07-11.49,27.72-7.66,7.66-16.85,11.49-27.57,11.49h-10.11c-1.53,0-2.89-.56-4.06-1.66-1.17-1.12-1.76-2.48-1.76-4.09,0-1.51.54-2.78,1.61-3.85,1.07-1.05,2.42-1.58,4.06-1.58h10.11c6.43,0,12.2-2.04,17.31-6.1,5.1-4.06,8.37-9.27,9.8-15.65h-43.35v-5.97c0-10.82,3.83-20.07,11.49-27.73,7.66-7.66,16.9-11.49,27.73-11.49h9.96c1.53,0,2.89.59,4.06,1.74,1.17,1.15,1.76,2.5,1.76,4.01s-.54,2.78-1.61,3.86c-1.07,1.05-2.37,1.58-3.91,1.58h-10.11c-6.64,0-12.54,2.12-17.69,6.33-5.16,4.21-8.4,9.6-9.73,16.19h43.5v5.21h0Zm-16.24-38.91h9.96-9.96Zm-22.82,78.12h-10.11,10.11Zm124.23-32.17h-65.87c1.43,6.23,4.67,11.36,9.73,15.32,5.06,3.98,10.85,5.98,17.39,5.98h9.8c3.88.2,5.82,2.14,5.82,5.82,0,3.47-1.84,5.36-5.51,5.67-2.04.1-5.41.15-10.11.15-10.83,0-20.07-3.83-27.73-11.49-7.66-7.66-11.49-16.9-11.49-27.73s3.83-19.91,11.49-27.57c7.66-7.66,16.9-11.49,27.73-11.49,7.86,0,15.09,2.2,21.67,6.59,6.59,4.39,11.41,10.26,14.48,17.62,1.63,3.98,2.5,7.15,2.6,9.5v11.64h0Zm-13.17-11.64c-1.33-6.54-4.19-11.9-8.58-16.08-4.7-4.29-10.31-6.43-16.85-6.43s-12.54,2.12-17.69,6.36c-5.16,4.24-8.4,9.63-9.73,16.16h52.85Zm96.65,39.83c0,10.72-4.09,19.56-12.25,26.5-7.66,6.43-16.95,9.65-27.88,9.65s-20.22-2.14-26.96-6.43c-8.07-5.11-12.1-12.92-12.1-23.44,0-1.63.56-3.04,1.66-4.21,1.12-1.17,2.43-1.76,3.93-1.76s2.86.59,4.01,1.76c1.15,1.2,1.74,2.55,1.74,4.08,0,7.4,2.96,12.59,8.88,15.57,4.29,2.17,10.57,3.24,18.84,3.24,7.76,0,14.4-2.14,19.91-6.46,5.92-4.72,8.88-10.88,8.88-18.48v-7.99c-7.94,8.48-17.21,12.71-27.8,12.71s-20.04-3.83-27.67-11.49c-7.63-7.66-11.46-16.9-11.46-27.73s3.83-19.91,11.49-27.57c7.66-7.66,16.9-11.49,27.73-11.49s19.91,3.83,27.57,11.49c7.66,7.66,11.49,16.85,11.49,27.57v34.46h0Zm-11.33-34.46c0-7.66-2.71-14.22-8.12-19.68-5.41-5.46-11.95-8.2-19.61-8.2s-14.35,2.73-19.76,8.2c-5.41,5.46-8.12,12.03-8.12,19.68s2.71,14.19,8.12,19.61,12,8.12,19.76,8.12,14.19-2.71,19.61-8.12c5.41-5.41,8.12-11.95,8.12-19.61h0Zm96.35-.23c0,10.85-3.83,20.12-11.49,27.78-7.66,7.69-16.85,11.51-27.57,11.51s-20.07-3.83-27.73-11.51c-7.66-7.66-11.49-16.93-11.49-27.78,0,.1-.05-10.54-.15-31.94,0-1.53.59-2.89,1.76-4.06,1.17-1.17,2.53-1.76,4.06-1.76s2.86.54,3.98,1.61c1.12,1.07,1.69,2.35,1.69,3.78v32.48c0,7.79,2.71,14.4,8.12,19.84,5.41,5.44,12,8.17,19.76,8.17s14.19-2.73,19.61-8.17c5.41-5.44,8.12-12.05,8.12-19.84,0,.1,0-10.57,0-32.02,0-1.53.54-2.89,1.63-4.08,1.1-1.17,2.4-1.76,3.88-1.76,3.68,0,5.51,1.79,5.51,5.36.21,21.6.31,32.4.31,32.4h0Zm45.34-38.83h9.96c1.53,0,2.89.56,4.06,1.66,1.17,1.12,1.76,2.43,1.76,3.93,0,1.61-.54,2.94-1.61,4.01-1.07,1.05-2.4,1.58-3.93,1.58h-10.13c-7.79,0-14.4,2.73-19.84,8.2-5.44,5.46-8.14,12.03-8.14,19.68v33.24c0,1.53-.59,2.83-1.74,3.91-1.15,1.07-2.5,1.61-4.01,1.61-3.73,0-5.59-1.79-5.59-5.36v-33.39c0-10.72,3.83-19.91,11.49-27.57,7.66-7.66,16.9-11.49,27.73-11.49h9.96-9.96Zm90.38,39.06c0-10.72-3.83-19.91-11.49-27.57-7.66-7.66-16.85-11.49-27.57-11.49s-20.07,3.83-27.73,11.49c-7.66,7.66-11.49,16.85-11.49,27.57s3.83,20.07,11.49,27.73c7.66,7.66,16.9,11.49,27.73,11.49s19.91-3.83,27.57-11.49c7.66-7.66,11.49-16.9,11.49-27.73h0Zm-11.33,0c0,7.66-2.71,14.19-8.12,19.61-5.41,5.41-11.95,8.12-19.61,8.12s-14.35-2.71-19.76-8.12c-5.41-5.41-8.12-11.95-8.12-19.61s2.71-14.22,8.12-19.68c5.41-5.46,12-8.2,19.76-8.2s14.19,2.73,19.61,8.2c5.41,5.46,8.12,12.03,8.12,19.68h0Zm71.99-.77c0,10.83-3.83,20.07-11.49,27.72-7.66,7.66-16.85,11.49-27.57,11.49h-10.11c-1.53,0-2.89-.56-4.06-1.66-1.17-1.12-1.76-2.48-1.76-4.09,0-1.51.54-2.78,1.61-3.85,1.07-1.05,2.42-1.58,4.06-1.58h10.11c6.43,0,12.2-2.04,17.31-6.1,5.1-4.06,8.37-9.27,9.8-15.65h-43.35v-5.97c0-10.82,3.83-20.07,11.49-27.73,7.66-7.66,16.9-11.49,27.73-11.49h9.96c1.53,0,2.89.59,4.06,1.74,1.17,1.15,1.76,2.5,1.76,4.01s-.54,2.78-1.61,3.86c-1.07,1.05-2.37,1.58-3.91,1.58h-10.11c-6.64,0-12.54,2.12-17.69,6.33-5.16,4.21-8.4,9.6-9.73,16.19h43.5v5.21h0Zm-16.24-38.91h9.96-9.96Zm-22.82,78.12h-10.11,10.11Z"/>
    <path class="cls-2" d="m436.9,66.97c72.77-30.98,157.29-8.6,205.19,54.34,47.9,62.94,46.96,150.37-2.29,212.26,35.34-50.83,35.34-118.27.02-169.11-35.32-50.84-98.53-74.36-158.5-58.98-29.62-25.67-44.43-38.51-44.43-38.51Z"/>
  </g>
  <g>
    <path class="cls-1" d="m110.46,199.23c0,10.72-4.09,19.56-12.25,26.5-7.66,6.43-16.95,9.65-27.88,9.65s-20.22-2.14-26.96-6.43c-8.07-5.11-12.1-12.92-12.1-23.44,0-1.63.56-3.04,1.66-4.21,1.12-1.17,2.43-1.76,3.93-1.76s2.86.59,4.01,1.76c1.15,1.2,1.74,2.55,1.74,4.08,0,7.4,2.96,12.59,8.88,15.57,4.29,2.17,10.57,3.24,18.84,3.24,7.76,0,14.4-2.14,19.91-6.46,5.92-4.72,8.88-10.88,8.88-18.48v-7.99c-7.94,8.48-17.21,12.71-27.8,12.71s-20.04-3.83-27.67-11.49c-7.63-7.66-11.46-16.9-11.46-27.73s3.83-19.91,11.49-27.57c7.66-7.66,16.9-11.49,27.73-11.49s19.91,3.83,27.57,11.49c7.66,7.66,11.49,16.85,11.49,27.57v34.46h0Zm-11.33-34.46c0-7.66-2.71-14.22-8.12-19.68-5.41-5.46-11.95-8.2-19.61-8.2s-14.35,2.73-19.76,8.2c-5.41,5.46-8.12,12.03-8.12,19.68s2.71,14.19,8.12,19.61c5.41,5.41,12,8.12,19.76,8.12s14.19-2.71,19.61-8.12c5.41-5.41,8.12-11.95,8.12-19.61h0Zm30.18-56.52c0,1.53-.54,2.88-1.63,4.06-1.07,1.17-2.4,1.76-3.96,1.76-1.66,0-3.04-.51-4.11-1.53-1.1-1.02-1.63-2.3-1.63-3.83s.54-2.89,1.63-4.06c1.07-1.17,2.4-1.76,3.96-1.76s2.91.51,4.03,1.53c1.15,1.02,1.71,2.3,1.71,3.83h0Zm0,90.22c0,1.53-.61,2.81-1.81,3.83-1.2,1.02-2.58,1.53-4.08,1.53s-2.78-.59-3.86-1.76c-1.05-1.17-1.58-2.53-1.58-4.06v-66.78c0-1.43.56-2.68,1.66-3.75,1.12-1.07,2.43-1.61,3.93-1.61s2.86.59,4.01,1.76c1.15,1.17,1.74,2.53,1.74,4.06v66.78Zm88.08-33.93c0,10.85-3.83,20.12-11.49,27.78-7.66,7.69-16.85,11.51-27.57,11.51s-20.07-3.83-27.73-11.51c-7.66-7.66-11.49-16.93-11.49-27.78,0,.1-.05-10.54-.15-31.94,0-1.53.59-2.89,1.76-4.06,1.17-1.17,2.53-1.76,4.06-1.76s2.86.54,3.98,1.61c1.12,1.07,1.69,2.35,1.69,3.78v32.47c0,7.79,2.71,14.4,8.12,19.84,5.41,5.44,12,8.17,19.76,8.17s14.19-2.73,19.61-8.17c5.41-5.44,8.12-12.05,8.12-19.84,0,.1,0-10.57,0-32.02,0-1.53.54-2.89,1.63-4.08,1.1-1.17,2.4-1.76,3.88-1.76,3.68,0,5.51,1.79,5.51,5.36.21,21.6.31,32.4.31,32.4h0Zm18.69,33.93c0,1.53-.61,2.81-1.81,3.83-1.2,1.02-2.58,1.53-4.08,1.53s-2.78-.59-3.86-1.76c-1.05-1.17-1.58-2.53-1.58-4.06v-97.42c0-1.43.56-2.68,1.66-3.75,1.12-1.07,2.42-1.61,3.93-1.61s2.86.59,4.01,1.76c1.15,1.17,1.74,2.53,1.74,4.06v97.42h0Zm21.9-90.22c0,1.53-.54,2.88-1.63,4.06-1.07,1.17-2.4,1.76-3.96,1.76-1.66,0-3.04-.51-4.11-1.53-1.1-1.02-1.63-2.3-1.63-3.83s.54-2.89,1.63-4.06c1.07-1.17,2.4-1.76,3.96-1.76s2.91.51,4.03,1.53c1.15,1.02,1.71,2.3,1.71,3.83h0Zm0,90.22c0,1.53-.61,2.81-1.81,3.83-1.2,1.02-2.58,1.53-4.08,1.53s-2.78-.59-3.86-1.76c-1.05-1.17-1.58-2.53-1.58-4.06v-66.78c0-1.43.56-2.68,1.66-3.75,1.12-1.07,2.43-1.61,3.93-1.61s2.86.59,4.01,1.76c1.15,1.17,1.74,2.53,1.74,4.06v66.78Zm87.62.15c0,1.63-.59,2.94-1.76,3.91-1.17.97-2.53,1.45-4.06,1.45-2.86,0-4.6-1.53-5.21-4.6-.1-.51-.15-3.17-.15-7.96-7.76,8.37-17.05,12.56-27.88,12.56s-20.07-3.83-27.72-11.49c-7.66-7.66-11.49-16.9-11.49-27.73s3.83-19.91,11.49-27.57c7.66-7.66,16.9-11.49,27.72-11.49s19.91,3.83,27.57,11.49c7.66,7.66,11.49,16.85,11.49,27.57v33.85h0Zm-11.34-33.85c0-7.66-2.71-14.22-8.12-19.68-5.41-5.46-11.95-8.2-19.61-8.2s-14.35,2.73-19.76,8.2c-5.41,5.46-8.12,12.03-8.12,19.68s2.71,14.19,8.12,19.61c5.41,5.41,12,8.12,19.76,8.12s14.19-2.71,19.61-8.12c5.41-5.41,8.12-11.95,8.12-19.61h0Zm96.35,33.39c0,1.53-.59,2.88-1.74,4.06-1.15,1.17-2.5,1.76-4.01,1.76s-2.81-.51-3.93-1.53c-1.1-1.02-1.66-2.3-1.66-3.83v-32.32c0-7.66-2.71-14.22-8.12-19.68-5.41-5.46-11.95-8.2-19.61-8.2s-14.35,2.73-19.76,8.2c-5.41,5.46-8.12,12.02-8.12,19.68,0-.1,0,10.47,0,31.71,0,1.63-.59,3.04-1.74,4.21-1.15,1.17-2.5,1.76-4.01,1.76s-2.81-.54-3.93-1.61c-1.1-1.07-1.66-2.37-1.66-3.91v-32.32c0-10.72,3.78-19.89,11.36-27.5,7.56-7.61,16.77-11.41,27.62-11.41s19.96,3.83,27.62,11.49c7.68,7.66,11.51,16.85,11.51,27.57,0,0,.05,10.62.15,31.86h0Zm84.71.46c0,1.63-.59,2.94-1.76,3.91-1.17.97-2.53,1.45-4.06,1.45-2.86,0-4.6-1.53-5.21-4.6-.1-.51-.15-3.17-.15-7.96-7.76,8.37-17.05,12.56-27.88,12.56s-20.07-3.83-27.73-11.49c-7.66-7.66-11.49-16.9-11.49-27.73s3.83-19.91,11.49-27.57c7.66-7.66,16.9-11.49,27.73-11.49s19.91,3.83,27.57,11.49c7.66,7.66,11.49,16.85,11.49,27.57v33.85h0Zm-11.33-33.85c0-7.66-2.71-14.22-8.12-19.68-5.41-5.46-11.95-8.2-19.61-8.2s-14.35,2.73-19.76,8.2c-5.41,5.46-8.12,12.03-8.12,19.68s2.71,14.19,8.12,19.61c5.41,5.41,12,8.12,19.76,8.12s14.19-2.71,19.61-8.12c5.41-5.41,8.12-11.95,8.12-19.61Z"/>
    <path class="cls-1" d="m350.79,306.32c0,2.43-.86,4.51-2.58,6.23-1.72,1.72-3.79,2.58-6.2,2.58h-2.27c-.35,0-.65-.13-.91-.37-.26-.25-.4-.56-.4-.92,0-.34.12-.63.36-.87.24-.23.55-.35.91-.35h2.27c1.45,0,2.74-.46,3.89-1.37,1.15-.91,1.88-2.08,2.2-3.52h-9.75v-1.34c0-2.43.86-4.51,2.58-6.24,1.72-1.72,3.8-2.58,6.23-2.58h2.24c.34,0,.65.13.91.39.26.26.4.56.4.9s-.12.63-.36.87c-.24.23-.54.36-.88.36h-2.27c-1.49,0-2.82.48-3.98,1.42-1.16.95-1.89,2.16-2.19,3.64h9.78v1.17h0Zm-3.65-8.75h2.24-2.24Zm-5.13,17.57h-2.27,2.27Zm28.14-8.7c0,2.44-.86,4.52-2.58,6.25-1.72,1.73-3.79,2.59-6.2,2.59s-4.51-.86-6.23-2.59c-1.72-1.72-2.58-3.81-2.58-6.25,0,.02-.01-2.37-.03-7.18,0-.34.13-.65.4-.91s.57-.4.91-.4.64.12.9.36c.25.24.38.53.38.85v7.3c0,1.75.61,3.24,1.83,4.46,1.22,1.22,2.7,1.84,4.44,1.84s3.19-.61,4.41-1.84c1.22-1.22,1.83-2.71,1.83-4.46,0,.02,0-2.38,0-7.2,0-.34.12-.65.37-.92.25-.26.54-.4.87-.4.83,0,1.24.4,1.24,1.21.05,4.86.07,7.29.07,7.29h0Zm18.98,7.66c0,.37-.13.66-.4.88-.26.22-.57.33-.91.33-.64,0-1.03-.35-1.17-1.03-.02-.11-.03-.71-.03-1.79-1.75,1.88-3.84,2.82-6.27,2.82s-4.51-.86-6.23-2.58c-1.72-1.72-2.58-3.8-2.58-6.23s.86-4.48,2.58-6.2c1.72-1.72,3.8-2.58,6.23-2.58s4.48.86,6.2,2.58c1.72,1.72,2.58,3.79,2.58,6.2v7.61h0Zm-2.55-7.61c0-1.72-.61-3.2-1.83-4.43-1.22-1.23-2.69-1.84-4.41-1.84s-3.23.61-4.44,1.84c-1.22,1.23-1.83,2.7-1.83,4.43s.61,3.19,1.83,4.41c1.22,1.22,2.7,1.83,4.44,1.83s3.19-.61,4.41-1.83c1.22-1.22,1.83-2.69,1.83-4.41h0Zm27-7.63c0,.34-.12.63-.36.87-.24.23-.54.36-.88.36h-2.28c-1.75,0-3.24.61-4.46,1.83-1.22,1.22-1.83,2.69-1.83,4.42s.61,3.21,1.85,4.44c1.23,1.24,2.72,1.85,4.44,1.85h2.21c.34,0,.65.13.92.37.26.25.4.54.4.88,0,.79-.42,1.21-1.27,1.26-.64.05-1.4.07-2.27.07-2.43,0-4.51-.86-6.23-2.58-1.72-1.72-2.58-3.8-2.58-6.23s.86-4.51,2.58-6.24c1.72-1.72,3.8-2.58,6.23-2.58h2.24c.35,0,.65.13.91.39.26.26.4.56.4.9h0Zm-3.55-1.29h2.24-2.24Zm.03,15.05h2.24-2.24Zm22.87-6.13c0,2.43-.86,4.51-2.58,6.23-1.72,1.72-3.79,2.58-6.2,2.58s-4.51-.86-6.23-2.58c-1.72-1.72-2.58-3.8-2.58-6.23s.86-4.48,2.58-6.2c1.72-1.72,3.8-2.58,6.23-2.58s4.48.86,6.2,2.58c1.72,1.72,2.58,3.79,2.58,6.2h0Zm-2.55,0c0-1.72-.61-3.2-1.83-4.43-1.22-1.23-2.69-1.84-4.41-1.84s-3.23.61-4.44,1.84c-1.22,1.23-1.83,2.7-1.83,4.43s.61,3.19,1.83,4.41c1.22,1.22,2.7,1.83,4.44,1.83s3.19-.61,4.41-1.83c1.22-1.22,1.83-2.69,1.83-4.41h0Zm12.85-8.78h2.24c.35,0,.65.13.91.37.26.25.4.54.4.88,0,.36-.12.66-.36.9-.24.24-.54.36-.88.36h-2.28c-1.75,0-3.24.61-4.46,1.84-1.22,1.23-1.83,2.7-1.83,4.43v7.47c0,.35-.13.64-.39.88-.26.24-.56.36-.9.36-.84,0-1.26-.4-1.26-1.21v-7.51c0-2.41.86-4.48,2.58-6.2,1.72-1.72,3.8-2.58,6.23-2.58h2.24-2.24Zm13.85,0h2.24c.35,0,.65.13.91.37.26.25.4.54.4.88,0,.36-.12.66-.36.9-.24.24-.54.36-.88.36h-2.28c-1.75,0-3.24.61-4.46,1.84-1.22,1.23-1.83,2.7-1.83,4.43v7.47c0,.35-.13.64-.39.88-.26.24-.56.36-.9.36-.84,0-1.26-.4-1.26-1.21v-7.51c0-2.41.86-4.48,2.58-6.2,1.72-1.72,3.8-2.58,6.23-2.58h2.24-2.24Zm20.22,10.2v-2.62c-.02-.53-.22-1.24-.59-2.14-.69-1.65-1.77-2.97-3.26-3.96-1.48-.99-3.11-1.48-4.87-1.48-2.43,0-4.51.86-6.24,2.58-1.72,1.72-2.58,3.79-2.58,6.2s.86,4.51,2.58,6.23c1.72,1.72,3.8,2.58,6.24,2.58,1.06,0,1.81-.01,2.27-.04.83-.07,1.24-.49,1.24-1.27,0-.83-.44-1.26-1.31-1.31h-2.2c-1.47,0-2.77-.45-3.91-1.34-1.14-.89-1.87-2.04-2.19-3.44h14.81Zm-2.96-2.62h-11.88c.3-1.47,1.03-2.68,2.19-3.63,1.16-.95,2.49-1.43,3.98-1.43s2.73.48,3.79,1.45c.99.94,1.63,2.15,1.93,3.62h0Zm16.81,8.82c0,.8-.41,1.23-1.24,1.27-1.06.05-1.83.07-2.31.07-2.43,0-4.52-.83-6.25-2.49-1.73-1.65-2.6-3.69-2.6-6.1v-12.04c0-.32.13-.6.37-.84.25-.24.55-.36.88-.36s.64.13.88.4c.25.26.38.57.41.91v3.03h8.54c.79,0,1.18.43,1.18,1.27,0,.37-.13.68-.4.93-.26.25-.57.38-.92.38h-8.4v6.11c0,1.72.62,3.18,1.87,4.38,1.25,1.2,2.73,1.79,4.46,1.77h2.21c.34,0,.65.13.92.4.26.26.39.57.39.91h0Zm-3.51-1.27h2.27-2.27Zm22.8-6.34c0,2.43-.86,4.51-2.58,6.23-1.72,1.72-3.79,2.58-6.2,2.58s-4.51-.86-6.23-2.58c-1.72-1.72-2.58-3.8-2.58-6.23s.86-4.48,2.58-6.2c1.72-1.72,3.8-2.58,6.23-2.58s4.48.86,6.2,2.58c1.72,1.72,2.58,3.79,2.58,6.2h0Zm-2.55,0c0-1.72-.61-3.2-1.83-4.43-1.22-1.23-2.69-1.84-4.41-1.84s-3.23.61-4.44,1.84c-1.22,1.23-1.83,2.7-1.83,4.43s.61,3.19,1.83,4.41c1.22,1.22,2.7,1.83,4.44,1.83s3.19-.61,4.41-1.83c1.22-1.22,1.83-2.69,1.83-4.41h0Zm12.85-8.78h2.24c.34,0,.65.13.91.37.26.25.4.54.4.88,0,.36-.12.66-.36.9-.24.24-.54.36-.88.36h-2.28c-1.75,0-3.24.61-4.46,1.84-1.22,1.23-1.83,2.7-1.83,4.43v7.47c0,.35-.13.64-.39.88-.26.24-.56.36-.9.36-.84,0-1.26-.4-1.26-1.21v-7.51c0-2.41.86-4.48,2.58-6.2,1.72-1.72,3.8-2.58,6.23-2.58h2.24-2.24Zm22.63,16.4c0,.37-.13.66-.4.88-.26.22-.57.33-.91.33-.64,0-1.03-.35-1.17-1.03-.02-.11-.03-.71-.03-1.79-1.75,1.88-3.84,2.82-6.27,2.82s-4.51-.86-6.23-2.58c-1.72-1.72-2.58-3.8-2.58-6.23s.86-4.48,2.58-6.2c1.72-1.72,3.8-2.58,6.23-2.58s4.48.86,6.2,2.58c1.72,1.72,2.58,3.79,2.58,6.2v7.61h0Zm-2.55-7.61c0-1.72-.61-3.2-1.82-4.43-1.22-1.23-2.69-1.84-4.41-1.84s-3.23.61-4.44,1.84c-1.22,1.23-1.83,2.7-1.83,4.43s.61,3.19,1.83,4.41c1.22,1.22,2.7,1.83,4.44,1.83s3.19-.61,4.41-1.83c1.22-1.22,1.82-2.69,1.82-4.41h0Zm32.52-.04c0,2.44-.86,4.51-2.58,6.24-1.72,1.72-3.79,2.58-6.2,2.58s-4.51-.86-6.24-2.58c-1.72-1.72-2.58-3.8-2.58-6.24s.86-4.51,2.58-6.23c1.72-1.72,3.8-2.58,6.24-2.58s4.41.94,6.2,2.82l.03-8.3c0-.35.13-.65.38-.91.25-.26.55-.4.9-.4s.64.12.9.35c.25.23.38.52.38.86v14.4h0Zm-2.55.02c0-1.73-.61-3.2-1.82-4.42-1.22-1.22-2.69-1.83-4.41-1.83s-3.23.61-4.44,1.83c-1.22,1.22-1.83,2.69-1.83,4.42s.61,3.24,1.83,4.46c1.22,1.22,2.7,1.83,4.44,1.83s3.19-.61,4.41-1.83c1.22-1.22,1.82-2.7,1.82-4.46h0Zm6.82-12.69c0,.34-.12.65-.37.91-.24.26-.54.4-.89.4-.37,0-.68-.11-.93-.35-.25-.23-.37-.52-.37-.86s.12-.65.37-.91c.24-.26.54-.4.89-.4s.66.11.91.34c.26.23.38.52.38.86h0Zm0,20.29c0,.34-.14.63-.41.86-.27.23-.58.34-.92.34s-.63-.13-.87-.4c-.24-.26-.36-.57-.36-.91v-15.02c0-.32.13-.6.37-.84.25-.24.55-.36.88-.36s.64.13.9.4c.26.26.39.57.39.91v15.02Zm19.7.17c0,2.41-.92,4.4-2.76,5.96-1.72,1.45-3.81,2.17-6.27,2.17s-4.55-.48-6.06-1.45c-1.81-1.15-2.72-2.91-2.72-5.27,0-.37.13-.68.37-.95.25-.26.54-.4.88-.4s.64.13.9.4c.26.27.39.57.39.92,0,1.66.67,2.83,2,3.5.96.49,2.38.73,4.24.73,1.74,0,3.24-.48,4.48-1.45,1.33-1.06,2-2.45,2-4.16v-1.8c-1.79,1.91-3.87,2.86-6.25,2.86s-4.51-.86-6.22-2.58c-1.72-1.72-2.58-3.8-2.58-6.23s.86-4.48,2.58-6.2c1.72-1.72,3.8-2.58,6.23-2.58s4.48.86,6.2,2.58c1.72,1.72,2.58,3.79,2.58,6.2v7.75h0Zm-2.55-7.75c0-1.72-.61-3.2-1.83-4.43-1.22-1.23-2.69-1.84-4.41-1.84s-3.23.61-4.44,1.84c-1.22,1.23-1.83,2.7-1.83,4.43s.61,3.19,1.83,4.41c1.22,1.22,2.7,1.83,4.44,1.83s3.19-.61,4.41-1.83c1.22-1.22,1.83-2.69,1.83-4.41h0Zm6.79-12.71c0,.34-.12.65-.37.91-.24.26-.54.4-.89.4-.37,0-.68-.11-.92-.35-.25-.23-.37-.52-.37-.86s.12-.65.37-.91c.24-.26.54-.4.89-.4s.65.11.91.34c.26.23.38.52.38.86h0Zm0,20.29c0,.34-.14.63-.41.86-.27.23-.58.34-.92.34s-.63-.13-.87-.4c-.24-.26-.36-.57-.36-.91v-15.02c0-.32.13-.6.37-.84.25-.24.55-.36.88-.36s.64.13.9.4c.26.26.39.57.39.91v15.02Zm14.78.04c0,.8-.41,1.23-1.24,1.27-1.06.05-1.83.07-2.31.07-2.43,0-4.52-.83-6.25-2.49-1.73-1.65-2.6-3.69-2.6-6.1v-12.04c0-.32.13-.6.37-.84.25-.24.55-.36.88-.36s.64.13.88.4c.25.26.38.57.41.91v3.03h8.54c.79,0,1.18.43,1.18,1.27,0,.37-.13.68-.4.93-.26.25-.57.38-.92.38h-8.4v6.11c0,1.72.62,3.18,1.87,4.38,1.24,1.2,2.73,1.79,4.46,1.77h2.21c.35,0,.66.13.92.4.26.26.39.57.39.91h0Zm-3.51-1.27h2.27-2.27Zm22.8,1.27c0,.37-.13.66-.4.88-.26.22-.57.33-.91.33-.64,0-1.03-.35-1.17-1.03-.02-.11-.03-.71-.03-1.79-1.75,1.88-3.84,2.82-6.27,2.82s-4.51-.86-6.23-2.58c-1.72-1.72-2.58-3.8-2.58-6.23s.86-4.48,2.58-6.2c1.72-1.72,3.8-2.58,6.23-2.58s4.48.86,6.2,2.58c1.72,1.72,2.58,3.79,2.58,6.2v7.61h0Zm-2.55-7.61c0-1.72-.61-3.2-1.82-4.43-1.22-1.23-2.69-1.84-4.41-1.84s-3.23.61-4.44,1.84c-1.22,1.23-1.83,2.7-1.83,4.43s.61,3.19,1.83,4.41c1.22,1.22,2.7,1.83,4.44,1.83s3.19-.61,4.41-1.83c1.22-1.22,1.82-2.69,1.82-4.41h0Zm6.86,7.58c0,.34-.14.63-.41.86-.27.23-.58.34-.92.34s-.63-.13-.87-.4c-.24-.26-.36-.57-.36-.91v-21.91c0-.32.13-.6.37-.84.25-.24.55-.36.88-.36s.64.13.9.4c.26.26.39.57.39.91v21.91Z"/>
    <path class="cls-1" d="m576.75,191.05c41.51.09,76.88,30.14,83.68,71.09-.84-28.36-13.45-55.1-34.8-73.79-21.36-18.69-49.53-27.64-77.76-24.7,19.25,18.27,28.88,27.4,28.88,27.4Z"/>
    <path class="cls-1" d="m660.41,261.98c.89-30.21-11.23-59.95-32.77-81.74-25.19-25.48-61.19-37.13-96.53-31.22-21.23-18.27-31.84-27.4-31.84-27.4,43.08-9.62,88.12,2.89,120.06,33.35,28.25,26.93,43.25,68.11,41.14,107.3"/>
  </g>
</svg>